# xmcd
#
# Track frame offsets: 
#        150
#        25391
#        53585
#        72974
#        96569
#        123378
#        140993
#        170321
#        192835
#        218002
#
# Disc length: 3236 seconds
#
# Revision: 1
# Processed by: cddbd v1.5.2PL0 Copyright (c) Steve Scherf et al.
# Submitted via: ExactAudioCopy v1.0b3
#
DISCID=940ca20a
DTITLE=Tuan Vu, Phuong Mai - Bien Man
DYEAR=1991
DGENRE=
TTITLE0=Neu chung minh cach tro
TTITLE1=Phuong Mai - Bien man
TTITLE2=Tuan Vu - Thoi doi
TTITLE3=Phuong Mai - Nhung ngay xua than ai
TTITLE4=Tuan Vu - Giong ca di vang
TTITLE5=Con duong xua em di
TTITLE6=Tuan Vu - Tam su nguoi linh tre
TTITLE7=Phuong Mai - Nhat ky doi toi
TTITLE8=Tuan Vu - Noi buon chau pha
TTITLE9=Tuan Vu - Con thuong rau dang moc sau he
EXTD=
EXTT0=
EXTT1=
EXTT2=
EXTT3=
EXTT4=
EXTT5=
EXTT6=
EXTT7=
EXTT8=
EXTT9=
PLAYORDER=
